<svg xmlns="http://www.w3.org/2000/svg" viewBox="0 0 620 250" role="img" aria-labelledby="title">
  <title id="title">Secure data center</title>
  <defs>
    <linearGradient id="room" x1="0" y1="0" x2="620" y2="250" gradientUnits="userSpaceOnUse">
      <stop stop-color="#F7FCFF"/>
      <stop offset=".58" stop-color="#E8F3F8"/>
      <stop offset="1" stop-color="#F7EFE3"/>
    </linearGradient>
    <linearGradient id="rack" x1="96" y1="32" x2="96" y2="218" gradientUnits="userSpaceOnUse">
      <stop stop-color="#00629D"/>
      <stop offset="1" stop-color="#00497A"/>
    </linearGradient>
    <linearGradient id="rack2" x1="386" y1="42" x2="386" y2="222" gradientUnits="userSpaceOnUse">
      <stop stop-color="#0B6F9F"/>
      <stop offset="1" stop-color="#00497A"/>
    </linearGradient>
    <linearGradient id="glow" x1="120" y1="66" x2="508" y2="206" gradientUnits="userSpaceOnUse">
      <stop stop-color="#7AC143"/>
      <stop offset=".54" stop-color="#00629D"/>
      <stop offset="1" stop-color="#EA7603"/>
    </linearGradient>
    <filter id="softShadow" x="-20%" y="-20%" width="140%" height="150%">
      <feDropShadow dx="0" dy="14" stdDeviation="13" flood-color="#00497A" flood-opacity=".18"/>
    </filter>
  </defs>
  <rect width="620" height="250" rx="16" fill="url(#room)"/>
  <path stroke="#B8D3E3" stroke-width="2" opacity=".42" d="M0 196h620M0 166h620M0 136h620M0 106h620M0 76h620M84 0v250M174 0v250M264 0v250M354 0v250M444 0v250M534 0v250"/>
  <path fill="#fff" opacity=".75" d="M28 206h564l-48 26H76z"/>
  <path stroke="#00629D" stroke-width="3" stroke-linecap="round" stroke-linejoin="round" opacity=".42" d="M196 72h78v54h74m-42 0v52h78m-126-52v76M424 82h78v42h58M133 72H70v48H38"/>
  <circle cx="274" cy="72" r="7" fill="#7AC143"/>
  <circle cx="348" cy="126" r="7" fill="#EA7603"/>
  <circle cx="258" cy="202" r="7" fill="#00629D"/>
  <circle cx="502" cy="82" r="7" fill="#7AC143"/>
  <circle cx="560" cy="124" r="7" fill="#00629D"/>
  <circle cx="38" cy="120" r="7" fill="#EA7603"/>
  <g filter="url(#softShadow)">
    <rect x="64" y="42" width="130" height="164" rx="12" fill="url(#rack)"/>
    <rect x="226" y="56" width="136" height="150" rx="12" fill="#FFFFFF"/>
    <rect x="226" y="56" width="136" height="150" rx="12" fill="#00629D" opacity=".88"/>
    <rect x="390" y="46" width="142" height="160" rx="12" fill="url(#rack2)"/>
  </g>
  <g fill="#DDF0F8" opacity=".92">
    <rect x="85" y="68" width="88" height="16" rx="4"/>
    <rect x="85" y="99" width="88" height="16" rx="4"/>
    <rect x="85" y="130" width="88" height="16" rx="4"/>
    <rect x="85" y="161" width="88" height="16" rx="4"/>
    <rect x="247" y="82" width="94" height="15" rx="4"/>
    <rect x="247" y="111" width="94" height="15" rx="4"/>
    <rect x="247" y="140" width="94" height="15" rx="4"/>
    <rect x="247" y="169" width="94" height="15" rx="4"/>
    <rect x="413" y="72" width="96" height="16" rx="4"/>
    <rect x="413" y="103" width="96" height="16" rx="4"/>
    <rect x="413" y="134" width="96" height="16" rx="4"/>
    <rect x="413" y="165" width="96" height="16" rx="4"/>
  </g>
  <g fill="url(#glow)">
    <circle cx="102" cy="76" r="5"/>
    <circle cx="102" cy="107" r="5"/>
    <circle cx="102" cy="138" r="5"/>
    <circle cx="102" cy="169" r="5"/>
    <circle cx="264" cy="89" r="5"/>
    <circle cx="264" cy="118" r="5"/>
    <circle cx="264" cy="147" r="5"/>
    <circle cx="264" cy="176" r="5"/>
    <circle cx="432" cy="80" r="5"/>
    <circle cx="432" cy="111" r="5"/>
    <circle cx="432" cy="142" r="5"/>
    <circle cx="432" cy="173" r="5"/>
  </g>
  <path fill="#00497A" opacity=".12" d="M64 206h468l42 18H22z"/>
  <path stroke="#00497A" stroke-width="4" stroke-linecap="round" opacity=".24" d="M84 226h452"/>
  <g transform="translate(268 30)">
    <path fill="#008540" d="M44 0 78 13v25.8c0 22.6-13.6 41.1-34 49.2C23.6 79.9 10 61.4 10 38.8V13L44 0Z"/>
    <path fill="#fff" opacity=".92" d="m62.9 31.9-23.6 23.6-11.8-11.8 6.4-6.4 5.4 5.4 17.2-17.2 6.4 6.4Z"/>
  </g>
</svg>
